<?xml version="1.0" encoding="utf-8"?><svg version="1.1" id="kofi-logo" xmlns="http://www.w3.org/2000/svg" xmlns:xlink="http://www.w3.org/1999/xlink" x="0px" y="0px" viewBox="0 0 600 600" style="enable-background:new 0 0 600 600;" xml:space="preserve"><style type="text/css">.st0{fill:#29ABE0;}.st1{fill:#FFFFFF;}.st2{fill:#FF5E5B;}</style><circle class="st0" cx="300" cy="300" r="300"/><g id="layer1_3_" transform="translate(-37.579964,-135.49927)"><g id="g40_3_" transform="matrix(1.1421528,0,0,-1.1421528,265.93398,460.73095)"><g id="g4184_3_"><path id="path38_3_" class="st1" d="M199.05-4.01c-15.41-1.93-27.94-0.48-27.94-0.48v94.38h18.97c12.53,0,24.63-5.22,32.81-14.72 c5.76-6.69,10.36-16.1,10.36-29.1C233.24,14.29,216.87,1.77,199.05-4.01 M280.24,62.25c-5.53,29.22-21.26,47.42-37.38,58.68 c-16.67,11.64-36.64,17.62-56.97,17.62h-288.57c-10.04,0-13.88-9.8-13.92-14.71c0-0.64,0.02-3.2,0.02-3.2 s-0.47-127.67,0.42-195.85c2.72-40.26,43.06-40.24,43.06-40.24s131.68,0.39,194.84,0.78c2.96,0.02,5.92,0.34,8.79,1.06 c35.96,9,39.68,42.4,39.29,61.02C242.09-56.62,293.08-5.62,280.24,62.25"/><path id="path42_3_" class="st2" d="M24.74-62.51c3.14-1.58,5.14,0.38,5.14,0.38S75.81-20.21,96.51,3.93 c18.4,21.6,19.6,57.99-12,71.59c-31.6,13.6-57.61-16-57.61-16c-22.55,24.8-56.68,23.54-72.46,6.76 c-15.78-16.78-10.27-45.59,1.5-61.62c11.05-15.05,59.64-58.35,67-65.68C22.94-61.02,23.48-61.58,24.74-62.51"/></g></g></g></svg>